<svg xmlns="http://www.w3.org/2000/svg" width="80" height="80" fill="none" viewBox="0 0 80 80"><g filter="url(#filter0_ii_0_1)"><g filter="url(#filter1_i_0_1)"><path fill="url(#paint0_linear_0_1)" d="M0 20C0 8.95431 8.95431 0 20 0H60C71.0457 0 80 8.95431 80 20V60C80 71.0457 71.0457 80 60 80H20C8.95431 80 0 71.0457 0 60V20Z"/></g><g filter="url(#filter2_diii_0_1)"><path fill="#F3E6FE" d="M47.7744 33L41.3999 19H45.2921L49.3034 28.3135L53.3148 19H57.068L50.6737 33H47.7744Z"/><path fill="#F3E6FE" d="M26 33.0001V19.0001H29.6539V24.9972H29.6936L35.1348 19.0001H39.4638L33.2284 25.6525L39.6823 33.0001H35.3333L29.6936 26.6852H29.6539V33.0001H26Z"/></g><g clip-path="url(#paint1_angular_0_1_clip_path)" data-figma-skip-parse="true"><g transform="matrix(0 0.04 -0.04 0 40 40)"><foreignObject width="2050" height="2050" x="-1025" y="-1025"><div xmlns="http://www.w3.org/1999/xhtml" style="background:conic-gradient(from 90deg,#b5e7ff 0deg,#f175ff 72.6923deg,rgba(241,117,255,.1) 360deg);height:100%;width:100%;opacity:1"/></foreignObject></g></g><path d="M60 76.6667V80H20V76.6667H60ZM76.6667 60V20C76.6667 10.7953 69.2047 3.33333 60 3.33333H20C10.7953 3.33333 3.33333 10.7953 3.33333 20V60C3.33333 69.2047 10.7953 76.6667 20 76.6667V80C8.95431 80 0 71.0457 0 60V20C0 8.95431 8.95431 0 20 0H60C71.0457 0 80 8.95431 80 20V60C80 71.0457 71.0457 80 60 80V76.6667C69.2047 76.6667 76.6667 69.2047 76.6667 60Z" data-figma-gradient-fill="{&quot;type&quot;:&quot;GRADIENT_ANGULAR&quot;,&quot;stops&quot;:[{&quot;color&quot;:{&quot;r&quot;:0.71089994907379150,&quot;g&quot;:0.90845167636871338,&quot;b&quot;:1.0,&quot;a&quot;:1.0},&quot;position&quot;:0.0},{&quot;color&quot;:{&quot;r&quot;:0.94509804248809814,&quot;g&quot;:0.45882353186607361,&quot;b&quot;:1.0,&quot;a&quot;:1.0},&quot;position&quot;:0.20192307233810425},{&quot;color&quot;:{&quot;r&quot;:0.94509804248809814,&quot;g&quot;:0.45882353186607361,&quot;b&quot;:1.0,&quot;a&quot;:0.10000000149011612},&quot;position&quot;:1.0}],&quot;stopsVar&quot;:[{&quot;color&quot;:{&quot;r&quot;:0.71089994907379150,&quot;g&quot;:0.90845167636871338,&quot;b&quot;:1.0,&quot;a&quot;:1.0},&quot;position&quot;:0.0},{&quot;color&quot;:{&quot;r&quot;:0.94509804248809814,&quot;g&quot;:0.45882353186607361,&quot;b&quot;:1.0,&quot;a&quot;:1.0},&quot;position&quot;:0.20192307233810425},{&quot;color&quot;:{&quot;r&quot;:0.94509804248809814,&quot;g&quot;:0.45882353186607361,&quot;b&quot;:1.0,&quot;a&quot;:0.10000000149011612},&quot;position&quot;:1.0}],&quot;transform&quot;:{&quot;m00&quot;:4.8985871985824346e-15,&quot;m01&quot;:-80.0,&quot;m02&quot;:80.0,&quot;m10&quot;:80.0,&quot;m11&quot;:4.8985871985824346e-15,&quot;m12&quot;:0.0},&quot;opacity&quot;:1.0,&quot;blendMode&quot;:&quot;NORMAL&quot;,&quot;visible&quot;:true}"/><g filter="url(#filter3_diii_0_1)"><g clip-path="url(#paint2_angular_0_1_clip_path)" data-figma-skip-parse="true"><g transform="matrix(0 0.0137346 -0.0137346 0 57.4011 55.9846)"><foreignObject width="2145.62" height="2145.62" x="-1072.81" y="-1072.81"><div xmlns="http://www.w3.org/1999/xhtml" style="background:conic-gradient(from 90deg,#9041ff 0deg,#efceff 223.269deg,#f1d3ff 299.423deg,#9041ff 360deg);height:100%;width:100%;opacity:1"/></foreignObject></g></g><path d="M53.5832 64.8458C49.0073 64.52 46.4998 62.7208 46.4998 62.0833V58.9242C48.1007 59.7033 50.0415 60.2275 52.1665 60.4825C52.1665 59.5475 52.2232 58.5983 52.464 57.6775C50.0415 57.3658 47.874 56.6433 46.4998 55.6375V51.6567C48.5257 52.8042 51.4582 53.5408 54.7448 53.5833C54.7873 53.5408 54.8157 53.4842 54.8582 53.4417C57.9748 50.3392 62.7915 49.9142 66.3332 52.2092V47.9167C66.3332 44.7858 61.2615 42.25 54.9998 42.25C48.7382 42.25 43.6665 44.7858 43.6665 47.9167V62.0833C43.6665 65.2142 48.7523 67.75 54.9998 67.75C55.4815 67.75 55.9632 67.75 56.4165 67.7075C55.8782 67.3533 55.3398 66.9567 54.8582 66.475C54.3623 65.965 53.9373 65.4267 53.5832 64.8458ZM54.9998 45.0833C60.4823 45.0833 63.4998 47.2083 63.4998 47.9167C63.4998 48.625 60.4823 50.75 54.9998 50.75C49.5173 50.75 46.4998 48.625 46.4998 47.9167C46.4998 47.2083 49.5173 45.0833 54.9998 45.0833ZM66.7723 63.3583C67.3957 62.3808 67.7498 61.205 67.7498 59.9583C67.7498 56.4167 64.9165 53.5833 61.3748 53.5833C57.8332 53.5833 54.9998 56.4167 54.9998 59.9583C54.9998 63.5 57.8332 66.3333 61.3748 66.3333C62.6073 66.3333 63.769 65.9792 64.7465 65.37L69.1665 69.7192L71.1357 67.75L66.7723 63.3583ZM61.3748 63.5C59.4198 63.5 57.8332 61.9133 57.8332 59.9583C57.8332 58.0033 59.4198 56.4167 61.3748 56.4167C63.3298 56.4167 64.9165 58.0033 64.9165 59.9583C64.9165 61.9133 63.3298 63.5 61.3748 63.5Z" data-figma-gradient-fill="{&quot;type&quot;:&quot;GRADIENT_ANGULAR&quot;,&quot;stops&quot;:[{&quot;color&quot;:{&quot;r&quot;:0.56707918643951416,&quot;g&quot;:0.25785005092620850,&quot;b&quot;:1.0,&quot;a&quot;:1.0},&quot;position&quot;:0.0},{&quot;color&quot;:{&quot;r&quot;:0.94001245498657227,&quot;g&quot;:0.81056565046310425,&quot;b&quot;:1.0,&quot;a&quot;:1.0},&quot;position&quot;:0.62019228935241699},{&quot;color&quot;:{&quot;r&quot;:0.94596540927886963,&quot;g&quot;:0.82936447858810425,&quot;b&quot;:1.0,&quot;a&quot;:1.0},&quot;position&quot;:0.83173078298568726}],&quot;stopsVar&quot;:[{&quot;color&quot;:{&quot;r&quot;:0.56707918643951416,&quot;g&quot;:0.25785005092620850,&quot;b&quot;:1.0,&quot;a&quot;:1.0},&quot;position&quot;:0.0},{&quot;color&quot;:{&quot;r&quot;:0.94001245498657227,&quot;g&quot;:0.81056565046310425,&quot;b&quot;:1.0,&quot;a&quot;:1.0},&quot;position&quot;:0.62019228935241699},{&quot;color&quot;:{&quot;r&quot;:0.94596540927886963,&quot;g&quot;:0.82936447858810425,&quot;b&quot;:1.0,&quot;a&quot;:1.0},&quot;position&quot;:0.83173078298568726}],&quot;transform&quot;:{&quot;m00&quot;:1.6820013924826209e-15,&quot;m01&quot;:-27.469165802001953,&quot;m02&quot;:71.135665893554688,&quot;m10&quot;:27.469165802001953,&quot;m11&quot;:1.6820013924826209e-15,&quot;m12&quot;:42.250},&quot;opacity&quot;:1.0,&quot;blendMode&quot;:&quot;NORMAL&quot;,&quot;visible&quot;:true}"/></g></g><defs><filter id="filter0_ii_0_1" width="1950.79" height="1350.79" x="-1527.39" y="-613.393" color-interpolation-filters="sRGB" filterUnits="userSpaceOnUse"><feFlood flood-opacity="0" result="BackgroundImageFix"/><feBlend in="SourceGraphic" in2="BackgroundImageFix" mode="normal" result="shape"/><feColorMatrix in="SourceAlpha" result="hardAlpha" type="matrix" values="0 0 0 0 0 0 0 0 0 0 0 0 0 0 0 0 0 0 127 0"/><feOffset dx="-3.697" dy="3.697"/><feGaussianBlur stdDeviation="1.848"/><feComposite in2="hardAlpha" k2="-1" k3="1" operator="arithmetic"/><feColorMatrix type="matrix" values="0 0 0 0 1 0 0 0 0 1 0 0 0 0 1 0 0 0 0.1 0"/><feBlend in2="shape" mode="normal" result="effect1_innerShadow_0_1"/><feColorMatrix in="SourceAlpha" result="hardAlpha" type="matrix" values="0 0 0 0 0 0 0 0 0 0 0 0 0 0 0 0 0 0 127 0"/><feOffset dx="3.697" dy="-3.697"/><feGaussianBlur stdDeviation="1.848"/><feComposite in2="hardAlpha" k2="-1" k3="1" operator="arithmetic"/><feColorMatrix type="matrix" values="0 0 0 0 0.402353 0 0 0 0 0.616941 0 0 0 0 0.557333 0 0 0 0.1 0"/><feBlend in2="effect1_innerShadow_0_1" mode="normal" result="effect2_innerShadow_0_1"/></filter><filter id="filter1_i_0_1" width="80" height="82" x="0" y="0" color-interpolation-filters="sRGB" filterUnits="userSpaceOnUse"><feFlood flood-opacity="0" result="BackgroundImageFix"/><feBlend in="SourceGraphic" in2="BackgroundImageFix" mode="normal" result="shape"/><feColorMatrix in="SourceAlpha" result="hardAlpha" type="matrix" values="0 0 0 0 0 0 0 0 0 0 0 0 0 0 0 0 0 0 127 0"/><feOffset dy="2"/><feGaussianBlur stdDeviation="1"/><feComposite in2="hardAlpha" k2="-1" k3="1" operator="arithmetic"/><feColorMatrix type="matrix" values="0 0 0 0 0 0 0 0 0 0 0 0 0 0 0 0 0 0 0.75 0"/><feBlend in2="shape" mode="normal" result="effect1_innerShadow_0_1"/></filter><filter id="filter2_diii_0_1" width="35.068" height="20" x="24" y="19" color-interpolation-filters="sRGB" filterUnits="userSpaceOnUse"><feFlood flood-opacity="0" result="BackgroundImageFix"/><feColorMatrix in="SourceAlpha" result="hardAlpha" type="matrix" values="0 0 0 0 0 0 0 0 0 0 0 0 0 0 0 0 0 0 127 0"/><feOffset dy="4"/><feGaussianBlur stdDeviation="1"/><feComposite in2="hardAlpha" operator="out"/><feColorMatrix type="matrix" values="0 0 0 0 0 0 0 0 0 0 0 0 0 0 0 0 0 0 0.06 0"/><feBlend in2="BackgroundImageFix" mode="normal" result="effect1_dropShadow_0_1"/><feBlend in="SourceGraphic" in2="effect1_dropShadow_0_1" mode="normal" result="shape"/><feColorMatrix in="SourceAlpha" result="hardAlpha" type="matrix" values="0 0 0 0 0 0 0 0 0 0 0 0 0 0 0 0 0 0 127 0"/><feOffset/><feGaussianBlur stdDeviation="1.674"/><feComposite in2="hardAlpha" k2="-1" k3="1" operator="arithmetic"/><feColorMatrix type="matrix" values="0 0 0 0 0.0235045 0 0 0 0 0.0724697 0 0 0 0 0.118555 0 0 0 0.5 0"/><feBlend in2="shape" mode="soft-light" result="effect2_innerShadow_0_1"/><feColorMatrix in="SourceAlpha" result="hardAlpha" type="matrix" values="0 0 0 0 0 0 0 0 0 0 0 0 0 0 0 0 0 0 127 0"/><feOffset dy="1.674"/><feGaussianBlur stdDeviation="1.674"/><feComposite in2="hardAlpha" k2="-1" k3="1" operator="arithmetic"/><feColorMatrix type="matrix" values="0 0 0 0 1 0 0 0 0 1 0 0 0 0 1 0 0 0 1 0"/><feBlend in2="effect2_innerShadow_0_1" mode="soft-light" result="effect3_innerShadow_0_1"/><feColorMatrix in="SourceAlpha" result="hardAlpha" type="matrix" values="0 0 0 0 0 0 0 0 0 0 0 0 0 0 0 0 0 0 127 0"/><feOffset dx="2.511"/><feGaussianBlur stdDeviation=".837"/><feComposite in2="hardAlpha" k2="-1" k3="1" operator="arithmetic"/><feColorMatrix type="matrix" values="0 0 0 0 1 0 0 0 0 1 0 0 0 0 1 0 0 0 1 0"/><feBlend in2="effect3_innerShadow_0_1" mode="soft-light" result="effect4_innerShadow_0_1"/></filter><clipPath id="paint1_angular_0_1_clip_path"><path d="M60 76.6667V80H20V76.6667H60ZM76.6667 60V20C76.6667 10.7953 69.2047 3.33333 60 3.33333H20C10.7953 3.33333 3.33333 10.7953 3.33333 20V60C3.33333 69.2047 10.7953 76.6667 20 76.6667V80C8.95431 80 0 71.0457 0 60V20C0 8.95431 8.95431 0 20 0H60C71.0457 0 80 8.95431 80 20V60C80 71.0457 71.0457 80 60 80V76.6667C69.2047 76.6667 76.6667 69.2047 76.6667 60Z"/></clipPath><filter id="filter3_diii_0_1" width="38" height="40" x="36" y="38" color-interpolation-filters="sRGB" filterUnits="userSpaceOnUse"><feFlood flood-opacity="0" result="BackgroundImageFix"/><feColorMatrix in="SourceAlpha" result="hardAlpha" type="matrix" values="0 0 0 0 0 0 0 0 0 0 0 0 0 0 0 0 0 0 127 0"/><feOffset dy="4"/><feGaussianBlur stdDeviation="1"/><feComposite in2="hardAlpha" operator="out"/><feColorMatrix type="matrix" values="0 0 0 0 0 0 0 0 0 0 0 0 0 0 0 0 0 0 0.06 0"/><feBlend in2="BackgroundImageFix" mode="normal" result="effect1_dropShadow_0_1"/><feBlend in="SourceGraphic" in2="effect1_dropShadow_0_1" mode="normal" result="shape"/><feColorMatrix in="SourceAlpha" result="hardAlpha" type="matrix" values="0 0 0 0 0 0 0 0 0 0 0 0 0 0 0 0 0 0 127 0"/><feOffset/><feGaussianBlur stdDeviation="1.674"/><feComposite in2="hardAlpha" k2="-1" k3="1" operator="arithmetic"/><feColorMatrix type="matrix" values="0 0 0 0 0.0235045 0 0 0 0 0.0724697 0 0 0 0 0.118555 0 0 0 0.5 0"/><feBlend in2="shape" mode="soft-light" result="effect2_innerShadow_0_1"/><feColorMatrix in="SourceAlpha" result="hardAlpha" type="matrix" values="0 0 0 0 0 0 0 0 0 0 0 0 0 0 0 0 0 0 127 0"/><feOffset dy="1.674"/><feGaussianBlur stdDeviation="1.674"/><feComposite in2="hardAlpha" k2="-1" k3="1" operator="arithmetic"/><feColorMatrix type="matrix" values="0 0 0 0 1 0 0 0 0 1 0 0 0 0 1 0 0 0 1 0"/><feBlend in2="effect2_innerShadow_0_1" mode="soft-light" result="effect3_innerShadow_0_1"/><feColorMatrix in="SourceAlpha" result="hardAlpha" type="matrix" values="0 0 0 0 0 0 0 0 0 0 0 0 0 0 0 0 0 0 127 0"/><feOffset dx="2.511"/><feGaussianBlur stdDeviation=".837"/><feComposite in2="hardAlpha" k2="-1" k3="1" operator="arithmetic"/><feColorMatrix type="matrix" values="0 0 0 0 1 0 0 0 0 1 0 0 0 0 1 0 0 0 1 0"/><feBlend in2="effect3_innerShadow_0_1" mode="soft-light" result="effect4_innerShadow_0_1"/></filter><clipPath id="paint2_angular_0_1_clip_path"><path d="M53.5832 64.8458C49.0073 64.52 46.4998 62.7208 46.4998 62.0833V58.9242C48.1007 59.7033 50.0415 60.2275 52.1665 60.4825C52.1665 59.5475 52.2232 58.5983 52.464 57.6775C50.0415 57.3658 47.874 56.6433 46.4998 55.6375V51.6567C48.5257 52.8042 51.4582 53.5408 54.7448 53.5833C54.7873 53.5408 54.8157 53.4842 54.8582 53.4417C57.9748 50.3392 62.7915 49.9142 66.3332 52.2092V47.9167C66.3332 44.7858 61.2615 42.25 54.9998 42.25C48.7382 42.25 43.6665 44.7858 43.6665 47.9167V62.0833C43.6665 65.2142 48.7523 67.75 54.9998 67.75C55.4815 67.75 55.9632 67.75 56.4165 67.7075C55.8782 67.3533 55.3398 66.9567 54.8582 66.475C54.3623 65.965 53.9373 65.4267 53.5832 64.8458ZM54.9998 45.0833C60.4823 45.0833 63.4998 47.2083 63.4998 47.9167C63.4998 48.625 60.4823 50.75 54.9998 50.75C49.5173 50.75 46.4998 48.625 46.4998 47.9167C46.4998 47.2083 49.5173 45.0833 54.9998 45.0833ZM66.7723 63.3583C67.3957 62.3808 67.7498 61.205 67.7498 59.9583C67.7498 56.4167 64.9165 53.5833 61.3748 53.5833C57.8332 53.5833 54.9998 56.4167 54.9998 59.9583C54.9998 63.5 57.8332 66.3333 61.3748 66.3333C62.6073 66.3333 63.769 65.9792 64.7465 65.37L69.1665 69.7192L71.1357 67.75L66.7723 63.3583ZM61.3748 63.5C59.4198 63.5 57.8332 61.9133 57.8332 59.9583C57.8332 58.0033 59.4198 56.4167 61.3748 56.4167C63.3298 56.4167 64.9165 58.0033 64.9165 59.9583C64.9165 61.9133 63.3298 63.5 61.3748 63.5Z"/></clipPath><linearGradient id="paint0_linear_0_1" x1="73.333" x2="11.667" y1="68.333" y2="10" gradientUnits="userSpaceOnUse"><stop stop-color="#01000B"/><stop offset="1" stop-color="#520188"/></linearGradient></defs></svg>