<svg xmlns="http://www.w3.org/2000/svg" width="80" height="80" fill="none" viewBox="0 0 80 80"><g filter="url(#filter0_ii_0_1)"><g filter="url(#filter1_i_0_1)"><path fill="url(#paint0_linear_0_1)" d="M0 20C0 8.95431 8.95431 0 20 0H60C71.0457 0 80 8.95431 80 20V60C80 71.0457 71.0457 80 60 80H20C8.95431 80 0 71.0457 0 60V20Z"/></g><g filter="url(#filter2_diii_0_1)"><path fill="#F3E6FE" d="M47.7744 33L41.3999 19H45.2921L49.3034 28.3135L53.3148 19H57.068L50.6737 33H47.7744Z"/><path fill="#F3E6FE" d="M26 33.0001V19.0001H29.6539V24.9972H29.6936L35.1348 19.0001H39.4638L33.2284 25.6525L39.6823 33.0001H35.3333L29.6936 26.6852H29.6539V33.0001H26Z"/></g><g clip-path="url(#paint1_angular_0_1_clip_path)" data-figma-skip-parse="true"><g transform="matrix(0 0.04 -0.04 0 40 40)"><foreignObject width="2050" height="2050" x="-1025" y="-1025"><div xmlns="http://www.w3.org/1999/xhtml" style="background:conic-gradient(from 90deg,#b5e7ff 0deg,#f175ff 72.6923deg,rgba(241,117,255,.1) 360deg);height:100%;width:100%;opacity:1"/></foreignObject></g></g><path d="M60 76.6667V80H20V76.6667H60ZM76.6667 60V20C76.6667 10.7953 69.2047 3.33333 60 3.33333H20C10.7953 3.33333 3.33333 10.7953 3.33333 20V60C3.33333 69.2047 10.7953 76.6667 20 76.6667V80C8.95431 80 0 71.0457 0 60V20C0 8.95431 8.95431 0 20 0H60C71.0457 0 80 8.95431 80 20V60C80 71.0457 71.0457 80 60 80V76.6667C69.2047 76.6667 76.6667 69.2047 76.6667 60Z" data-figma-gradient-fill="{&quot;type&quot;:&quot;GRADIENT_ANGULAR&quot;,&quot;stops&quot;:[{&quot;color&quot;:{&quot;r&quot;:0.71089994907379150,&quot;g&quot;:0.90845167636871338,&quot;b&quot;:1.0,&quot;a&quot;:1.0},&quot;position&quot;:0.0},{&quot;color&quot;:{&quot;r&quot;:0.94509804248809814,&quot;g&quot;:0.45882353186607361,&quot;b&quot;:1.0,&quot;a&quot;:1.0},&quot;position&quot;:0.20192307233810425},{&quot;color&quot;:{&quot;r&quot;:0.94509804248809814,&quot;g&quot;:0.45882353186607361,&quot;b&quot;:1.0,&quot;a&quot;:0.10000000149011612},&quot;position&quot;:1.0}],&quot;stopsVar&quot;:[{&quot;color&quot;:{&quot;r&quot;:0.71089994907379150,&quot;g&quot;:0.90845167636871338,&quot;b&quot;:1.0,&quot;a&quot;:1.0},&quot;position&quot;:0.0},{&quot;color&quot;:{&quot;r&quot;:0.94509804248809814,&quot;g&quot;:0.45882353186607361,&quot;b&quot;:1.0,&quot;a&quot;:1.0},&quot;position&quot;:0.20192307233810425},{&quot;color&quot;:{&quot;r&quot;:0.94509804248809814,&quot;g&quot;:0.45882353186607361,&quot;b&quot;:1.0,&quot;a&quot;:0.10000000149011612},&quot;position&quot;:1.0}],&quot;transform&quot;:{&quot;m00&quot;:4.8985871985824346e-15,&quot;m01&quot;:-80.0,&quot;m02&quot;:80.0,&quot;m10&quot;:80.0,&quot;m11&quot;:4.8985871985824346e-15,&quot;m12&quot;:0.0},&quot;opacity&quot;:1.0,&quot;blendMode&quot;:&quot;NORMAL&quot;,&quot;visible&quot;:true}"/><g filter="url(#filter3_diii_0_1)"><g clip-path="url(#paint2_angular_0_1_clip_path)" data-figma-skip-parse="true"><g transform="matrix(-0.00877826 0.0115587 -0.00256859 -0.00195072 53.9432 56.0853)"><foreignObject width="2620.08" height="2620.08" x="-1310.04" y="-1310.04"><div xmlns="http://www.w3.org/1999/xhtml" style="background:conic-gradient(from 90deg,#9041ff 0deg,#efceff 223.269deg,#f1d3ff 299.423deg,#9041ff 360deg);height:100%;width:100%;opacity:1"/></foreignObject></g></g><path d="M64.5415 47.463C64.9554 46.9179 64.8558 46.126 64.3253 45.7452L61.1239 43.3139C60.6147 42.9051 59.8251 43.0217 59.4111 43.5667L57.4565 46.1262L62.5869 50.0225M44.5934 63.0778L45.1683 67.6466L49.7237 66.9741L61.4617 51.504L56.3314 47.6077L44.5934 63.0778Z" data-figma-gradient-fill="{&quot;type&quot;:&quot;GRADIENT_ANGULAR&quot;,&quot;stops&quot;:[{&quot;color&quot;:{&quot;r&quot;:0.56707918643951416,&quot;g&quot;:0.25785005092620850,&quot;b&quot;:1.0,&quot;a&quot;:1.0},&quot;position&quot;:0.0},{&quot;color&quot;:{&quot;r&quot;:0.94001245498657227,&quot;g&quot;:0.81056565046310425,&quot;b&quot;:1.0,&quot;a&quot;:1.0},&quot;position&quot;:0.62019228935241699},{&quot;color&quot;:{&quot;r&quot;:0.94596540927886963,&quot;g&quot;:0.82936447858810425,&quot;b&quot;:1.0,&quot;a&quot;:1.0},&quot;position&quot;:0.83173078298568726}],&quot;stopsVar&quot;:[{&quot;color&quot;:{&quot;r&quot;:0.56707918643951416,&quot;g&quot;:0.25785005092620850,&quot;b&quot;:1.0,&quot;a&quot;:1.0},&quot;position&quot;:0.0},{&quot;color&quot;:{&quot;r&quot;:0.94001245498657227,&quot;g&quot;:0.81056565046310425,&quot;b&quot;:1.0,&quot;a&quot;:1.0},&quot;position&quot;:0.62019228935241699},{&quot;color&quot;:{&quot;r&quot;:0.94596540927886963,&quot;g&quot;:0.82936447858810425,&quot;b&quot;:1.0,&quot;a&quot;:1.0},&quot;position&quot;:0.83173078298568726}],&quot;transform&quot;:{&quot;m00&quot;:-17.556520462036133,&quot;m01&quot;:-5.1371855735778809,&quot;m02&quot;:65.290016174316406,&quot;m10&quot;:23.117334365844727,&quot;m11&quot;:-3.9014492034912109,&quot;m12&quot;:46.477344512939453},&quot;opacity&quot;:1.0,&quot;blendMode&quot;:&quot;NORMAL&quot;,&quot;visible&quot;:true}"/></g></g><defs><filter id="filter0_ii_0_1" width="1950.79" height="1350.79" x="-1639.39" y="-613.393" color-interpolation-filters="sRGB" filterUnits="userSpaceOnUse"><feFlood flood-opacity="0" result="BackgroundImageFix"/><feBlend in="SourceGraphic" in2="BackgroundImageFix" mode="normal" result="shape"/><feColorMatrix in="SourceAlpha" result="hardAlpha" type="matrix" values="0 0 0 0 0 0 0 0 0 0 0 0 0 0 0 0 0 0 127 0"/><feOffset dx="-3.697" dy="3.697"/><feGaussianBlur stdDeviation="1.848"/><feComposite in2="hardAlpha" k2="-1" k3="1" operator="arithmetic"/><feColorMatrix type="matrix" values="0 0 0 0 1 0 0 0 0 1 0 0 0 0 1 0 0 0 0.1 0"/><feBlend in2="shape" mode="normal" result="effect1_innerShadow_0_1"/><feColorMatrix in="SourceAlpha" result="hardAlpha" type="matrix" values="0 0 0 0 0 0 0 0 0 0 0 0 0 0 0 0 0 0 127 0"/><feOffset dx="3.697" dy="-3.697"/><feGaussianBlur stdDeviation="1.848"/><feComposite in2="hardAlpha" k2="-1" k3="1" operator="arithmetic"/><feColorMatrix type="matrix" values="0 0 0 0 0.402353 0 0 0 0 0.616941 0 0 0 0 0.557333 0 0 0 0.1 0"/><feBlend in2="effect1_innerShadow_0_1" mode="normal" result="effect2_innerShadow_0_1"/></filter><filter id="filter1_i_0_1" width="80" height="82" x="0" y="0" color-interpolation-filters="sRGB" filterUnits="userSpaceOnUse"><feFlood flood-opacity="0" result="BackgroundImageFix"/><feBlend in="SourceGraphic" in2="BackgroundImageFix" mode="normal" result="shape"/><feColorMatrix in="SourceAlpha" result="hardAlpha" type="matrix" values="0 0 0 0 0 0 0 0 0 0 0 0 0 0 0 0 0 0 127 0"/><feOffset dy="2"/><feGaussianBlur stdDeviation="1"/><feComposite in2="hardAlpha" k2="-1" k3="1" operator="arithmetic"/><feColorMatrix type="matrix" values="0 0 0 0 0 0 0 0 0 0 0 0 0 0 0 0 0 0 0.75 0"/><feBlend in2="shape" mode="normal" result="effect1_innerShadow_0_1"/></filter><filter id="filter2_diii_0_1" width="35.068" height="20" x="24" y="19" color-interpolation-filters="sRGB" filterUnits="userSpaceOnUse"><feFlood flood-opacity="0" result="BackgroundImageFix"/><feColorMatrix in="SourceAlpha" result="hardAlpha" type="matrix" values="0 0 0 0 0 0 0 0 0 0 0 0 0 0 0 0 0 0 127 0"/><feOffset dy="4"/><feGaussianBlur stdDeviation="1"/><feComposite in2="hardAlpha" operator="out"/><feColorMatrix type="matrix" values="0 0 0 0 0 0 0 0 0 0 0 0 0 0 0 0 0 0 0.06 0"/><feBlend in2="BackgroundImageFix" mode="normal" result="effect1_dropShadow_0_1"/><feBlend in="SourceGraphic" in2="effect1_dropShadow_0_1" mode="normal" result="shape"/><feColorMatrix in="SourceAlpha" result="hardAlpha" type="matrix" values="0 0 0 0 0 0 0 0 0 0 0 0 0 0 0 0 0 0 127 0"/><feOffset/><feGaussianBlur stdDeviation="1.674"/><feComposite in2="hardAlpha" k2="-1" k3="1" operator="arithmetic"/><feColorMatrix type="matrix" values="0 0 0 0 0.0235045 0 0 0 0 0.0724697 0 0 0 0 0.118555 0 0 0 0.5 0"/><feBlend in2="shape" mode="soft-light" result="effect2_innerShadow_0_1"/><feColorMatrix in="SourceAlpha" result="hardAlpha" type="matrix" values="0 0 0 0 0 0 0 0 0 0 0 0 0 0 0 0 0 0 127 0"/><feOffset dy="1.674"/><feGaussianBlur stdDeviation="1.674"/><feComposite in2="hardAlpha" k2="-1" k3="1" operator="arithmetic"/><feColorMatrix type="matrix" values="0 0 0 0 1 0 0 0 0 1 0 0 0 0 1 0 0 0 1 0"/><feBlend in2="effect2_innerShadow_0_1" mode="soft-light" result="effect3_innerShadow_0_1"/><feColorMatrix in="SourceAlpha" result="hardAlpha" type="matrix" values="0 0 0 0 0 0 0 0 0 0 0 0 0 0 0 0 0 0 127 0"/><feOffset dx="2.511"/><feGaussianBlur stdDeviation=".837"/><feComposite in2="hardAlpha" k2="-1" k3="1" operator="arithmetic"/><feColorMatrix type="matrix" values="0 0 0 0 1 0 0 0 0 1 0 0 0 0 1 0 0 0 1 0"/><feBlend in2="effect3_innerShadow_0_1" mode="soft-light" result="effect4_innerShadow_0_1"/></filter><clipPath id="paint1_angular_0_1_clip_path"><path d="M60 76.6667V80H20V76.6667H60ZM76.6667 60V20C76.6667 10.7953 69.2047 3.33333 60 3.33333H20C10.7953 3.33333 3.33333 10.7953 3.33333 20V60C3.33333 69.2047 10.7953 76.6667 20 76.6667V80C8.95431 80 0 71.0457 0 60V20C0 8.95431 8.95431 0 20 0H60C71.0457 0 80 8.95431 80 20V60C80 71.0457 71.0457 80 60 80V76.6667C69.2047 76.6667 76.6667 69.2047 76.6667 60Z"/></clipPath><filter id="filter3_diii_0_1" width="24.204" height="30.577" x="42.593" y="43.069" color-interpolation-filters="sRGB" filterUnits="userSpaceOnUse"><feFlood flood-opacity="0" result="BackgroundImageFix"/><feColorMatrix in="SourceAlpha" result="hardAlpha" type="matrix" values="0 0 0 0 0 0 0 0 0 0 0 0 0 0 0 0 0 0 127 0"/><feOffset dy="4"/><feGaussianBlur stdDeviation="1"/><feComposite in2="hardAlpha" operator="out"/><feColorMatrix type="matrix" values="0 0 0 0 0 0 0 0 0 0 0 0 0 0 0 0 0 0 0.06 0"/><feBlend in2="BackgroundImageFix" mode="normal" result="effect1_dropShadow_0_1"/><feBlend in="SourceGraphic" in2="effect1_dropShadow_0_1" mode="normal" result="shape"/><feColorMatrix in="SourceAlpha" result="hardAlpha" type="matrix" values="0 0 0 0 0 0 0 0 0 0 0 0 0 0 0 0 0 0 127 0"/><feOffset/><feGaussianBlur stdDeviation="1.674"/><feComposite in2="hardAlpha" k2="-1" k3="1" operator="arithmetic"/><feColorMatrix type="matrix" values="0 0 0 0 0.0235045 0 0 0 0 0.0724697 0 0 0 0 0.118555 0 0 0 0.5 0"/><feBlend in2="shape" mode="soft-light" result="effect2_innerShadow_0_1"/><feColorMatrix in="SourceAlpha" result="hardAlpha" type="matrix" values="0 0 0 0 0 0 0 0 0 0 0 0 0 0 0 0 0 0 127 0"/><feOffset dy="1.674"/><feGaussianBlur stdDeviation="1.674"/><feComposite in2="hardAlpha" k2="-1" k3="1" operator="arithmetic"/><feColorMatrix type="matrix" values="0 0 0 0 1 0 0 0 0 1 0 0 0 0 1 0 0 0 1 0"/><feBlend in2="effect2_innerShadow_0_1" mode="soft-light" result="effect3_innerShadow_0_1"/><feColorMatrix in="SourceAlpha" result="hardAlpha" type="matrix" values="0 0 0 0 0 0 0 0 0 0 0 0 0 0 0 0 0 0 127 0"/><feOffset dx="2.511"/><feGaussianBlur stdDeviation=".837"/><feComposite in2="hardAlpha" k2="-1" k3="1" operator="arithmetic"/><feColorMatrix type="matrix" values="0 0 0 0 1 0 0 0 0 1 0 0 0 0 1 0 0 0 1 0"/><feBlend in2="effect3_innerShadow_0_1" mode="soft-light" result="effect4_innerShadow_0_1"/></filter><clipPath id="paint2_angular_0_1_clip_path"><path d="M64.5415 47.463C64.9554 46.9179 64.8558 46.126 64.3253 45.7452L61.1239 43.3139C60.6147 42.9051 59.8251 43.0217 59.4111 43.5667L57.4565 46.1262L62.5869 50.0225M44.5934 63.0778L45.1683 67.6466L49.7237 66.9741L61.4617 51.504L56.3314 47.6077L44.5934 63.0778Z"/></clipPath><linearGradient id="paint0_linear_0_1" x1="73.333" x2="11.667" y1="68.333" y2="10" gradientUnits="userSpaceOnUse"><stop stop-color="#01000B"/><stop offset="1" stop-color="#520188"/></linearGradient></defs></svg>